<svg width="46" height="75" viewBox="0 0 46 75" fill="none" xmlns="http://www.w3.org/2000/svg">
<path d="M24 26L27.374 26.9308L27.4506 26.653L27.4808 26.3664L24 26ZM5.845 54.5357L9.04862 53.1261L5.845 54.5357ZM31 4L34.4959 3.83044C34.4136 2.13299 33.1238 0.739977 31.4377 0.527471C29.7515 0.314965 28.1564 1.34438 27.6555 2.96832L31 4ZM32.8448 42.0357L36.3415 41.8836L36.3412 41.8749L36.3407 41.8661L32.8448 42.0357ZM45.6653 68.4289C45.0541 66.5951 43.072 65.604 41.2381 66.2153C39.4043 66.8265 38.4133 68.8086 39.0245 70.6424L45.6653 68.4289ZM27.4808 26.3664C27.7297 24.0014 27.9531 21.7241 28.0133 19.6953C28.0725 17.7004 27.9873 15.669 27.4764 13.8729C26.9422 11.9945 25.8659 10.1355 23.8288 8.98828C21.8947 7.89903 19.6387 7.76552 17.3824 8.06637L18.3075 15.005C19.8012 14.8058 20.3145 15.0428 20.3938 15.0875C20.4209 15.1028 20.4449 15.1185 20.4878 15.1795C20.5421 15.2568 20.6431 15.4349 20.7435 15.7878C20.9589 16.5452 21.0687 17.7237 21.0164 19.4877C20.965 21.2179 20.7703 23.2486 20.5192 25.6336L27.4808 26.3664ZM17.3824 8.06637C14.1322 8.49973 11.7374 10.7351 10.0901 12.9017C8.38697 15.1417 7.03213 17.8972 5.98189 20.4572C4.91894 23.0482 4.09964 25.6102 3.52157 27.5532C3.23271 28.5241 2.99801 29.3615 2.8304 29.9501C2.74384 30.254 2.68074 30.472 2.63416 30.6236C2.55339 30.8864 2.59058 30.7183 2.71449 30.4705L8.97551 33.6009C9.16192 33.2281 9.28895 32.7982 9.32536 32.6797C9.39598 32.4499 9.47741 32.1669 9.56272 31.8674C9.73885 31.2489 9.95727 30.4691 10.2309 29.5494C10.7778 27.7111 11.521 25.3982 12.4581 23.1141C13.4078 20.7991 14.4905 18.6797 15.6623 17.1384C16.89 15.5237 17.8078 15.0716 18.3075 15.005L17.3824 8.06637ZM2.71449 30.4705C2.48866 30.9221 2.30349 31.5271 2.17998 31.9538C2.02428 32.4917 1.84851 33.1738 1.67129 33.9675C1.31695 35.5545 0.942725 37.6506 0.715287 40.0103C0.270286 44.6273 0.339572 50.7137 2.64138 55.9452L9.04862 53.1261C7.46146 49.5188 7.28075 44.8552 7.683 40.6819C7.87918 38.6465 8.20289 36.8373 8.50307 35.4929C8.65311 34.8209 8.79376 34.2808 8.90391 33.9003C9.04624 33.4086 9.07635 33.3992 8.97551 33.6009L2.71449 30.4705ZM2.64138 55.9452C3.43087 57.7396 4.55221 59.5268 6.29794 60.5287C8.38059 61.724 10.5397 61.3784 12.1969 60.4163C13.6668 59.5628 14.8589 58.1913 15.8117 56.8406C16.8051 55.4322 17.7477 53.7409 18.6318 51.9248C22.1365 44.7258 25.3706 34.1932 27.374 26.9308L20.626 25.0693C18.6294 32.3069 15.5359 42.2921 12.338 48.8608C11.5465 50.4867 10.7901 51.8155 10.0915 52.8058C9.35226 53.8538 8.85944 54.2597 8.68206 54.3627C8.62996 54.3929 8.75732 54.3063 9.03296 54.2915C9.3417 54.275 9.61385 54.3609 9.78225 54.4575C9.98632 54.5746 9.63409 54.4568 9.04862 53.1261L2.64138 55.9452ZM20.626 25.0693C20.5141 25.4751 20.4239 25.8137 20.3703 26.046C20.3563 26.1068 20.3369 26.1942 20.3191 26.2907C20.3104 26.3385 20.297 26.4152 20.2852 26.5079C20.2775 26.5681 20.2503 26.7808 20.2565 27.0508C20.2593 27.1694 20.2705 27.4874 20.3746 27.8773C20.4299 28.0843 20.7641 29.3621 22.1378 30.0792C23.8293 30.9622 25.2924 30.1634 25.7141 29.8795C26.1803 29.5657 26.4537 29.2148 26.5338 29.1109C26.7356 28.8493 26.8548 28.6151 26.8809 28.5646C26.9284 28.4726 26.9636 28.3948 26.9838 28.3491C27.1434 27.9875 27.4099 27.176 27.6594 26.4098C28.2381 24.6323 29.1754 21.659 30.1628 18.5012C31.1521 15.3376 32.1975 11.9701 32.9954 9.39439C33.3944 8.10634 33.7316 7.01587 33.9691 6.24735C34.0878 5.86308 34.1816 5.55928 34.2458 5.35149C34.2779 5.2476 34.3025 5.1677 34.3192 5.11375C34.3275 5.08678 34.3338 5.06629 34.3381 5.05253C34.3402 5.04565 34.3418 5.04045 34.3429 5.03697C34.3434 5.03523 34.3438 5.03391 34.3441 5.03303C34.3442 5.03259 34.3443 5.03225 34.3444 5.03203C34.3445 5.0318 34.3445 5.03168 31 4C27.6555 2.96832 27.6555 2.96842 27.6554 2.96862C27.6553 2.96884 27.6552 2.96915 27.6551 2.96958C27.6549 2.97043 27.6545 2.97171 27.6539 2.97343C27.6529 2.97685 27.6513 2.98199 27.6492 2.98881C27.645 3.00244 27.6387 3.02281 27.6304 3.04965C27.6138 3.10335 27.5893 3.18297 27.5573 3.2866C27.4933 3.49384 27.3997 3.79704 27.2811 4.18067C27.044 4.94794 26.7073 6.03685 26.3088 7.32311C25.5118 9.89603 24.4684 13.2569 23.4818 16.4121C22.4933 19.5732 21.5676 22.5094 21.0033 24.2427C20.6812 25.2319 20.5561 25.5762 20.58 25.5221C20.5917 25.4956 20.6195 25.4337 20.6605 25.3542C20.6801 25.3162 20.7939 25.0912 20.9913 24.8353C21.0692 24.7343 21.3406 24.3853 21.8051 24.0727C22.2251 23.79 23.6869 22.9914 25.3772 23.8738C26.7497 24.5903 27.083 25.8666 27.1376 26.0713C27.2411 26.4588 27.252 26.7736 27.2546 26.888C27.2607 27.1498 27.2344 27.3507 27.2287 27.3954C27.2188 27.4726 27.2085 27.5304 27.2039 27.5554C27.1946 27.6064 27.1879 27.6336 27.1913 27.6191C27.2072 27.5499 27.26 27.3438 27.374 26.9308L20.626 25.0693ZM27.5041 4.16956L29.349 42.2052L36.3407 41.8661L34.4959 3.83044L27.5041 4.16956ZM32.8448 42.0357C29.3482 42.1877 29.3482 42.1879 29.3482 42.1882C29.3482 42.1883 29.3482 42.1886 29.3482 42.1889C29.3482 42.1895 29.3483 42.1902 29.3483 42.1911C29.3484 42.193 29.3485 42.1955 29.3486 42.1987C29.3489 42.2051 29.3493 42.2143 29.3499 42.2263C29.3509 42.2501 29.3525 42.2848 29.3546 42.3299C29.3588 42.4201 29.3651 42.5522 29.3736 42.7227C29.3906 43.0636 29.4165 43.5587 29.4522 44.1813C29.5235 45.4262 29.6344 47.1836 29.7927 49.2416C30.1082 53.3429 30.6167 58.6982 31.3878 63.5815L38.3021 62.4898C37.5732 57.8732 37.0816 52.7284 36.7721 48.7047C36.6179 46.7002 36.51 44.9889 36.4407 43.7806C36.4061 43.1767 36.3811 42.6991 36.3649 42.3741C36.3568 42.2116 36.3509 42.0872 36.347 42.0044C36.3451 41.963 36.3437 41.9319 36.3428 41.9116C36.3423 41.9015 36.342 41.8941 36.3418 41.8894C36.3417 41.887 36.3416 41.8854 36.3416 41.8844C36.3416 41.8839 36.3415 41.8836 36.3415 41.8835C36.3415 41.8834 36.3415 41.8835 36.3415 41.8834C36.3415 41.8835 36.3415 41.8836 32.8448 42.0357ZM31.3878 63.5815C32.2596 69.1028 34.805 72.5058 38.1678 73.7068C39.7264 74.2634 41.3793 74.2879 42.7837 73.7807C43.4642 73.535 44.3064 73.0811 44.9608 72.2631C45.6798 71.3644 46.1757 69.9601 45.6653 68.4289L39.0245 70.6424C38.6392 69.4863 39.0414 68.4569 39.4947 67.8902C39.8835 67.4042 40.2882 67.2395 40.4062 67.1968C40.6856 67.0959 40.7135 67.1829 40.5221 67.1146C40.3849 67.0655 38.9303 66.4685 38.3021 62.4898L31.3878 63.5815Z" fill="#623CEA"/>
</svg>
