<svg xmlns="http://www.w3.org/2000/svg" xmlns:xlink="http://www.w3.org/1999/xlink" viewBox="0 0 385.61 518.75"><defs><style>.cls-1{fill:url(#linear-gradient);}.cls-2{fill:none;stroke:#231f20;stroke-miterlimit:10;}.cls-3{fill:url(#linear-gradient-2);}.cls-4{fill:url(#linear-gradient-3);}.cls-5{fill:url(#linear-gradient-4);}.cls-6{fill:#231f20;opacity:0.5;}.cls-7{fill:#2e3192;opacity:0.4;}</style><linearGradient id="linear-gradient" x1="-7.83" y1="409.31" x2="320.86" y2="409.31" gradientUnits="userSpaceOnUse"><stop offset="0" stop-color="#ffd400"/><stop offset="0.1" stop-color="#fec808"/><stop offset="0.29" stop-color="#fba81d"/><stop offset="0.53" stop-color="#f6743f"/><stop offset="0.83" stop-color="#f02d6e"/><stop offset="1" stop-color="#ec008c"/></linearGradient><linearGradient id="linear-gradient-2" x1="394.61" y1="308.29" x2="130.22" y2="308.29" gradientUnits="userSpaceOnUse"><stop offset="0.1" stop-color="#ec64a3"/><stop offset="0.15" stop-color="#d762a3"/><stop offset="0.27" stop-color="#b25ea4"/><stop offset="0.39" stop-color="#935ba4"/><stop offset="0.52" stop-color="#7c59a5"/><stop offset="0.66" stop-color="#6b57a5"/><stop offset="0.81" stop-color="#6156a5"/><stop offset="1" stop-color="#5e56a5"/></linearGradient><linearGradient id="linear-gradient-3" x1="83.45" y1="23.84" x2="83.45" y2="407.07" gradientUnits="userSpaceOnUse"><stop offset="0" stop-color="#fff682"/><stop offset="0.28" stop-color="#fac26c"/><stop offset="1" stop-color="#ef4136"/></linearGradient><linearGradient id="linear-gradient-4" x1="253.7" y1="171.03" x2="98.45" y2="203.9" gradientUnits="userSpaceOnUse"><stop offset="0.04" stop-color="#9ed2f1"/><stop offset="0.14" stop-color="#98c8e9"/><stop offset="0.32" stop-color="#88aed5"/><stop offset="0.56" stop-color="#6d84b4"/><stop offset="0.83" stop-color="#494a86"/><stop offset="1" stop-color="#2f2266"/></linearGradient></defs><title>buzzle</title><g id="repair"><path class="cls-1" d="M334.81,449.81a108.53,108.53,0,0,1-20.66,25.95s-.06.06-.09.09A192.82,192.82,0,0,1,2.2,355.14a108.32,108.32,0,0,0,4.07,14.5l.2.65h0a108.05,108.05,0,0,0,160.37,53.17c.76-.38,1.52-.76,2.26-1.2l118.9-68.64a32,32,0,0,0,2.49-53.75c1.7.86,3.36,1.76,5,2.72C347,332.31,364.59,398.21,334.81,449.81Z"/><line class="cls-2" x1="290.54" y1="299.87" x2="290.53" y2="299.87"/><path class="cls-3" d="M290.53,299.87a28.35,28.35,0,0,0-2.48-1.59L169.16,229.64a32,32,0,0,0-47.78,24.5h0c-.1-1.89-.15-3.8-.15-5.72,0-59.42,48.29-107.59,107.87-107.59a108.2,108.2,0,0,1,32.83,5.07h0a192.84,192.84,0,0,1,52.24,329.85,108.5,108.5,0,0,0,20.65-25.95c29.78-51.6,12.21-117.5-39.25-147.22-1.66-1-3.32-1.86-5-2.72"/><path class="cls-4" d="M166.89,423.46A108.05,108.05,0,0,1,6.52,370.29c-.09-.22-.17-.43-.25-.65A155.91,155.91,0,0,1,0,328.93c0-1,0-2,0-3V78.13L43.41,8.48A18.48,18.48,0,0,1,54.92.66a24.62,24.62,0,0,1,8-.55,25.2,25.2,0,0,1,3.26.55h0l.25.07.49.1s0,0,0,0A18.05,18.05,0,0,1,77.8,8.48l.29.44,43.13,69.21v68.76l.16,107.26a29.71,29.71,0,0,0-.16,3.16V394.59A32,32,0,0,0,166.89,423.46Z"/><path class="cls-5" d="M261.92,145.91a193.45,193.45,0,0,0-140.7,1l.15,107.25c-.1-1.89-.15-3.8-.15-5.72,0-59.42,48.29-107.59,107.86-107.59a108.26,108.26,0,0,1,32.84,5.07"/><path class="cls-6" d="M6.52,370.29h0l-.2-.65C6.35,369.86,6.43,370.07,6.52,370.29Z"/><path class="cls-6" d="M6.52,370.29h0l-.2-.65C6.35,369.86,6.43,370.07,6.52,370.29Z"/><path class="cls-6" d="M6.52,370.29h0l-.2-.65C6.35,369.86,6.43,370.07,6.52,370.29Z"/><path class="cls-6" d="M6.52,370.29h0l-.2-.65C6.35,369.86,6.43,370.07,6.52,370.29Z"/><path class="cls-7" d="M295.55,302.59c-1.65-1-3.31-1.86-5-2.72a32,32,0,0,1,7.52,44.71,107.88,107.88,0,0,1,16.83,130c-.24.4-.49.79-.72,1.2a108.6,108.6,0,0,0,20.64-25.94C364.59,398.21,347,332.31,295.55,302.59Z"/><path class="cls-7" d="M256.1,144.25a107.83,107.83,0,0,0-27-3.42c-59.58,0-107.87,48.17-107.87,107.59,0,1.92,0,3.83.15,5.72h0a32,32,0,0,1,36.44-28.46A107.83,107.83,0,0,1,256.1,144.25Z"/><path class="cls-7" d="M128.76,415.23a108.08,108.08,0,0,1-125-60.8c-.34-.54-.7-1.06-1-1.61-.13-.19-.25-.39-.37-.59L2.23,352a159.66,159.66,0,0,0,4,17.66c.08.22.16.43.25.65a108.05,108.05,0,0,0,160.37,53.17A31.94,31.94,0,0,1,128.76,415.23Z"/></g></svg>