<?xml version="1.0" encoding="UTF-8" standalone="no"?>
<!DOCTYPE svg PUBLIC "-//W3C//DTD SVG 20010904//EN"
              "http://www.w3.org/TR/2001/REC-SVG-20010904/DTD/svg10.dtd">

<svg xmlns="http://www.w3.org/2000/svg"
     width="0.522222in" height="0.722222in"
     viewBox="0 0 47 65">
     <mask id="mask" maskUnits="userSpaceOnUse">
     
     <path fill="none"
     stroke="#623CEA"
     stroke-wdidth="40"
        d="M 19.46,61.82
           C 17.42,63.52 15.26,64.37 13.00,64.37
             9.82,64.37 7.10,62.50 4.84,58.76
             2.91,55.25 1.61,50.26 0.93,43.80
             0.70,37.34 1.38,30.88 2.97,24.42
             4.44,17.85 6.88,11.67 10.28,5.89
             11.18,4.19 12.26,2.89 13.51,1.98
             14.75,0.96 16.00,0.45 17.25,0.45
             18.04,0.45 19.12,0.73 20.48,1.30
             21.50,1.87 22.40,2.89 23.20,4.36
             23.99,5.72 24.39,6.97 24.39,8.10
             24.39,9.12 23.99,9.97 23.20,10.65
             22.52,11.22 21.67,11.39 20.65,11.16
             19.51,10.93 18.83,10.71 18.61,10.48
             18.15,10.14 17.76,9.97 17.42,9.97
             16.96,9.97 16.51,10.37 16.06,11.16
             16.06,11.16 15.04,12.86 15.04,12.86
             10.50,22.27 8.24,32.01 8.24,42.10
             8.24,47.20 9.14,51.73 10.96,55.70
             11.52,56.72 12.32,57.23 13.34,57.23
             14.02,57.23 14.81,56.95 15.72,56.38
             16.62,55.47 18.66,53.21 21.84,49.58
             25.80,44.71 29.54,39.49 33.06,33.94
             36.68,28.39 38.67,25.38 39.01,24.93
             40.03,23.46 41.22,22.72 42.58,22.72
             43.71,22.72 44.56,23.00 45.13,23.57
             45.81,24.14 46.15,24.87 46.15,25.78
             46.15,26.57 46.03,27.14 45.81,27.48
             45.69,27.82 45.41,28.33 44.96,29.01
             41.22,34.90 38.61,38.93 37.14,41.08
             35.78,43.12 33.06,46.69 28.98,51.79
             26.71,54.62 24.61,57.00 22.69,58.93
             21.78,59.95 20.70,60.91 19.46,61.82 Z" />
     </mask>
  <path 
  class="c"
  fill="#623CEA"
        d="M 19.46,61.82
           C 17.42,63.52 15.26,64.37 13.00,64.37
             9.82,64.37 7.10,62.50 4.84,58.76
             2.91,55.25 1.61,50.26 0.93,43.80
             0.70,37.34 1.38,30.88 2.97,24.42
             4.44,17.85 6.88,11.67 10.28,5.89
             11.18,4.19 12.26,2.89 13.51,1.98
             14.75,0.96 16.00,0.45 17.25,0.45
             18.04,0.45 19.12,0.73 20.48,1.30
             21.50,1.87 22.40,2.89 23.20,4.36
             23.99,5.72 24.39,6.97 24.39,8.10
             24.39,9.12 23.99,9.97 23.20,10.65
             22.52,11.22 21.67,11.39 20.65,11.16
             19.51,10.93 18.83,10.71 18.61,10.48
             18.15,10.14 17.76,9.97 17.42,9.97
             16.96,9.97 16.51,10.37 16.06,11.16
             16.06,11.16 15.04,12.86 15.04,12.86
             10.50,22.27 8.24,32.01 8.24,42.10
             8.24,47.20 9.14,51.73 10.96,55.70
             11.52,56.72 12.32,57.23 13.34,57.23
             14.02,57.23 14.81,56.95 15.72,56.38
             16.62,55.47 18.66,53.21 21.84,49.58
             25.80,44.71 29.54,39.49 33.06,33.94
             36.68,28.39 38.67,25.38 39.01,24.93
             40.03,23.46 41.22,22.72 42.58,22.72
             43.71,22.72 44.56,23.00 45.13,23.57
             45.81,24.14 46.15,24.87 46.15,25.78
             46.15,26.57 46.03,27.14 45.81,27.48
             45.69,27.82 45.41,28.33 44.96,29.01
             41.22,34.90 38.61,38.93 37.14,41.08
             35.78,43.12 33.06,46.69 28.98,51.79
             26.71,54.62 24.61,57.00 22.69,58.93
             21.78,59.95 20.70,60.91 19.46,61.82 Z" />
</svg>
