<svg width="361" height="270" viewBox="0 0 361 270" fill="none" xmlns="http://www.w3.org/2000/svg">
<rect width="361" height="270" fill="white"/>
<path d="M279.459 35.255L262.657 40.238L180.991 122.02L193.405 122.046L279.459 35.255Z" fill="#623CEA"/>
<path d="M279.462 35.241L275.237 52.7127L193.429 134.41L193.429 122.016L279.462 35.241Z" fill="#AB97F4"/>
<path d="M173.796 125.155L184.52 125.136L187.398 128.004L162.88 152.61L162.851 136.139L173.796 125.155Z" fill="#D762A3"/>
<path d="M190.296 141.583L190.277 130.859L187.399 127.991L158.279 157.361L174.749 157.331L190.296 141.583Z" fill="#EC008C"/>
<path d="M193.434 134.421L180.996 122.021H193.434L193.434 134.421Z" fill="#AB97F4"/>
<path d="M187.191 128.21L193.438 122.011V134.43L187.191 128.21Z" fill="#623CEA"/>
<path d="M110.533 179.065L105 173.533L110.533 168L110.533 179.065Z" fill="#AB97F4"/>
<path d="M110.533 179.065L116.066 173.533L110.533 168L110.533 179.065Z" fill="#623CEA"/>
<path d="M73.5326 176.065L68 170.533L73.5326 165L73.5326 176.065Z" fill="#AB97F4"/>
<path d="M73.5329 176.065L79.0654 170.533L73.5329 165L73.5329 176.065Z" fill="#623CEA"/>
<path d="M146.533 170.066L141 164.533L146.533 159L146.533 170.066Z" fill="#AB97F4"/>
<path d="M146.533 170.065L152.065 164.533L146.533 159L146.533 170.065Z" fill="#623CEA"/>
<path d="M128.609 165.218L122 158.609L128.609 152V165.218Z" fill="#EC008C"/>
<path d="M128.609 165.218L135.218 158.609L128.609 152V165.218Z" fill="#D762A3"/>
<path d="M90.609 165.218L84 158.609L90.609 152V165.218Z" fill="#EC008C"/>
<path d="M90.6097 165.218L97.2188 158.609L90.6097 152V165.218Z" fill="#D762A3"/>
<path d="M147.27 188.337L110.596 224.933V188.337L128.933 170L147.27 188.337Z" fill="#AB97F4"/>
<path d="M110.596 188.337V224.933L74 188.337L92.337 170L110.596 188.337Z" fill="#623CEA"/>
</svg>
