<svg width="300" height="270" viewBox="0 0 361 324" fill="none" xmlns="http://www.w3.org/2000/svg">
<rect width="361" height="324" fill="white"/>
<path d="M279.459 74.255L262.657 79.238L180.991 161.02L193.405 161.046L279.459 74.255Z" fill="#623CEA"/>
<path d="M279.462 74.241L275.237 91.7127L193.429 173.41L193.429 161.016L279.462 74.241Z" fill="#AB97F4"/>
<path d="M173.796 164.155L184.52 164.136L187.398 167.004L162.88 191.61L162.851 175.139L173.796 164.155Z" fill="#D762A3"/>
<path d="M190.296 180.583L190.277 169.859L187.399 166.991L158.279 196.361L174.749 196.331L190.296 180.583Z" fill="#EC008C"/>
<path d="M193.434 173.421L180.996 161.021H193.434L193.434 173.421Z" fill="#AB97F4"/>
<path d="M187.191 167.21L193.438 161.011V173.43L187.191 167.21Z" fill="#623CEA"/>
<path d="M110.533 218.065L105 212.533L110.533 207L110.533 218.065Z" fill="#AB97F4"/>
<path d="M110.533 218.065L116.066 212.533L110.533 207L110.533 218.065Z" fill="#623CEA"/>
<path d="M73.5326 215.065L68 209.533L73.5326 204L73.5326 215.065Z" fill="#AB97F4"/>
<path d="M73.5329 215.065L79.0654 209.533L73.5329 204L73.5329 215.065Z" fill="#623CEA"/>
<path d="M146.533 209.066L141 203.533L146.533 198L146.533 209.066Z" fill="#AB97F4"/>
<path d="M146.533 209.065L152.065 203.533L146.533 198L146.533 209.065Z" fill="#623CEA"/>
<path d="M128.609 204.218L122 197.609L128.609 191V204.218Z" fill="#EC008C"/>
<path d="M128.609 204.218L135.218 197.609L128.609 191V204.218Z" fill="#D762A3"/>
<path d="M90.609 204.218L84 197.609L90.609 191V204.218Z" fill="#EC008C"/>
<path d="M90.6097 204.218L97.2188 197.609L90.6097 191V204.218Z" fill="#D762A3"/>
<path d="M147.27 227.337L110.596 263.933V227.337L128.933 209L147.27 227.337Z" fill="#AB97F4"/>
<path d="M110.596 227.337V263.933L74 227.337L92.337 209L110.596 227.337Z" fill="#623CEA"/>
</svg>
