<svg width="602" height="371" viewBox="0 0 602 371" fill="none" xmlns="http://www.w3.org/2000/svg">
<rect x="40.7254" width="565.83" height="295.508" rx="45" transform="rotate(7.92144 40.7254 0)" fill="#282727"/>
<rect x="54.7501" y="14" width="534.741" height="273.918" rx="45" transform="rotate(7.92144 54.7501 14)" fill="#623CEA"/>
<path d="M139.327 127.525C138.196 131.499 137.119 136.264 136.095 141.819C135.182 147.39 134.291 153.189 133.424 159.214C132.525 165.458 131.751 171.608 131.103 177.665C130.564 183.737 130.104 189.262 129.723 194.239C131.82 195.212 133.775 195.997 135.59 196.593C137.421 197.08 139.213 197.45 140.966 197.703C147.429 198.633 152.634 198.208 156.58 196.428C160.651 194.554 163.105 190.714 163.941 184.908C164.272 182.608 164.11 180.236 163.456 177.794C162.91 175.367 161.997 173.167 160.716 171.194C159.544 169.236 158.051 167.567 156.237 166.188C154.532 164.824 152.694 164.001 150.722 163.717C149.189 163.496 147.569 163.486 145.862 163.688C144.156 163.89 142.637 164.342 141.306 165.045C140.946 165.217 140.437 165.255 139.78 165.161C138.575 164.987 137.566 164.227 136.754 162.88C135.941 161.533 135.622 160.257 135.795 159.052C135.969 157.847 136.603 156.932 137.7 156.307C138.921 155.588 140.284 155.058 141.787 154.715C143.399 154.388 144.988 154.225 146.553 154.227C148.119 154.229 149.449 154.308 150.544 154.466C154.269 155.002 157.601 156.321 160.542 158.421C163.592 160.538 166.124 163.139 168.14 166.224C170.172 169.2 171.647 172.544 172.567 176.254C173.502 179.855 173.702 183.518 173.165 187.243C172.535 191.624 171.177 195.231 169.092 198.062C167.117 200.908 164.618 203.12 161.595 204.698C158.573 206.275 155.136 207.234 151.285 207.575C147.434 207.915 143.428 207.785 139.265 207.186C136.855 206.839 134.523 206.336 132.27 205.676C130.142 204.922 128.21 203.973 126.474 202.829C125.315 203.109 124.407 203.202 123.75 203.107C122.655 202.95 121.716 202.479 120.934 201.696C120.262 200.928 119.982 199.769 120.093 198.22C120.256 191.646 120.718 184.556 121.478 176.95C122.347 169.36 123.325 161.785 124.413 154.227C125.218 148.64 126.1 143.288 127.06 138.17C128.021 133.053 129.043 128.28 130.128 123.852C130.914 120.722 132.567 119.339 135.086 119.702C136.401 119.891 137.527 120.612 138.465 121.865C139.403 123.119 139.737 124.676 139.469 126.539L139.327 127.525ZM241.692 171.445L241.313 174.074C240.572 179.223 239.408 184.591 237.821 190.177C236.344 195.779 234.272 200.848 231.606 205.384C229.066 209.826 225.869 213.392 222.016 216.08C218.178 218.658 213.576 219.561 208.208 218.788C204.374 218.236 200.767 216.878 197.389 214.715C194.135 212.457 191.83 209.442 190.472 205.668C189.411 202.944 188.467 199.789 187.642 196.203C186.926 192.634 186.343 188.916 185.893 185.049C185.569 181.089 185.416 177.098 185.436 173.075C185.566 169.068 185.899 165.202 186.435 161.478C186.64 160.054 187.236 159.021 188.223 158.381C189.335 157.646 190.548 157.374 191.863 157.563C193.177 157.752 194.319 158.364 195.288 159.398C196.273 160.322 196.703 161.614 196.576 163.273C196.179 168.36 195.946 173.47 195.878 178.604C195.92 183.753 196.306 188.449 197.037 192.692C197.893 196.841 199.236 200.332 201.064 203.167C203.002 206.018 205.614 207.68 208.9 208.153C211.639 208.547 214.183 207.963 216.532 206.401C218.898 204.728 221.029 202.352 222.926 199.27C224.933 196.205 226.643 192.481 228.056 188.1C229.486 183.609 230.579 178.735 231.336 173.477L231.88 169.697C232.101 168.164 232.704 167.076 233.691 166.436C234.803 165.701 235.962 165.421 237.167 165.594C238.372 165.768 239.459 166.372 240.428 167.406C241.413 168.33 241.835 169.677 241.692 171.445ZM259.49 213.256C262.917 214.308 266.688 215.298 270.803 216.226C275.044 217.06 279.191 217.769 283.244 218.353C285.435 218.668 287.313 218.827 288.879 218.828C290.553 218.846 291.774 218.91 292.541 219.02C293.856 219.209 294.763 219.899 295.262 221.089C295.887 222.185 296.113 223.336 295.939 224.541C295.75 225.856 295.061 226.763 293.87 227.262C292.68 227.762 291.185 228.05 289.385 228.126C287.71 228.109 285.887 227.958 283.915 227.674C281.928 227.5 280.057 227.287 278.305 227.034C273.923 226.403 269.408 225.53 264.761 224.413C260.113 223.297 255.959 222.252 252.297 221.277C250.466 220.79 249.098 219.811 248.192 218.338C247.411 216.772 247.131 215.222 247.351 213.689C247.541 212.374 248.434 210.825 250.033 209.043C251.631 207.26 253.449 205.509 255.485 203.79C257.632 202.086 259.762 200.492 261.877 199.007C264.117 197.429 265.855 196.225 267.093 195.397C269.928 193.569 272.888 191.647 275.974 189.631C279.075 187.506 282.404 185.357 285.959 183.185C281.734 182.242 277.43 181.454 273.048 180.823C271.296 180.571 269.645 180.389 268.095 180.278C266.671 180.073 265.411 179.892 264.316 179.734C262.892 179.529 261.859 178.933 261.219 177.946C260.703 176.866 260.532 175.723 260.706 174.518C260.911 173.094 261.554 172.124 262.634 171.609C263.715 171.093 264.928 170.821 266.274 170.791C267.73 170.777 269.217 170.935 270.734 171.265C272.252 171.596 273.559 171.84 274.654 171.997C276.298 172.234 278.598 172.565 281.556 172.991C284.53 173.307 287.409 173.889 290.194 174.738C293.089 175.602 295.498 176.731 297.422 178.126C299.471 179.428 300.33 181.229 299.998 183.529C299.872 184.405 299.488 185.133 298.846 185.711C298.313 186.306 297.538 186.641 296.52 186.718C293.184 188.922 289.965 191.086 286.864 193.211C283.888 195.243 280.904 197.329 277.912 199.47C275.045 201.518 272.108 203.667 269.1 205.917C266.093 208.168 262.889 210.614 259.49 213.256ZM320.618 222.056C324.044 223.108 327.815 224.098 331.931 225.026C336.172 225.86 340.319 226.569 344.372 227.152C346.563 227.468 348.441 227.626 350.006 227.628C351.681 227.646 352.902 227.709 353.669 227.82C354.983 228.009 355.89 228.699 356.39 229.889C357.015 230.985 357.241 232.136 357.067 233.341C356.878 234.655 356.188 235.563 354.998 236.062C353.808 236.562 352.313 236.85 350.513 236.926C348.838 236.909 347.015 236.758 345.043 236.474C343.055 236.3 341.185 236.086 339.432 235.834C335.05 235.203 330.536 234.33 325.888 233.213C321.241 232.097 317.086 231.052 313.425 230.077C311.594 229.59 310.225 228.61 309.319 227.138C308.538 225.572 308.258 224.022 308.479 222.489C308.668 221.174 309.562 219.625 311.161 217.843C312.759 216.06 314.576 214.309 316.613 212.59C318.759 210.886 320.89 209.292 323.004 207.807C325.244 206.228 326.983 205.025 328.22 204.197C331.055 202.369 334.016 200.447 337.101 198.431C340.203 196.305 343.531 194.157 347.087 191.985C342.861 191.041 338.558 190.254 334.176 189.623C332.423 189.371 330.772 189.189 329.223 189.078C327.799 188.873 326.539 188.692 325.443 188.534C324.019 188.329 322.987 187.733 322.346 186.746C321.831 185.666 321.66 184.523 321.833 183.318C322.038 181.894 322.681 180.924 323.762 180.409C324.842 179.893 326.056 179.621 327.402 179.591C328.857 179.577 330.344 179.735 331.862 180.065C333.38 180.396 334.687 180.64 335.782 180.797C337.425 181.034 339.726 181.365 342.684 181.791C345.657 182.107 348.537 182.689 351.322 183.538C354.216 184.402 356.626 185.531 358.549 186.926C360.598 188.228 361.457 190.028 361.126 192.329C361 193.205 360.616 193.933 359.973 194.511C359.441 195.105 358.665 195.441 357.648 195.518C354.312 197.722 351.093 199.886 347.991 202.011C345.015 204.043 342.031 206.129 339.039 208.27C336.173 210.318 333.236 212.467 330.228 214.717C327.221 216.968 324.017 219.414 320.618 222.056ZM388.034 233.773C389.192 234.276 390.029 235.067 390.544 236.147C391.075 237.118 391.262 238.152 391.104 239.247C390.915 240.562 390.358 241.712 389.433 242.697C388.525 243.572 387.358 243.907 385.934 243.702C385.167 243.592 384.424 243.317 383.705 242.878C379.371 241.136 376.25 239.122 374.343 236.834C372.452 234.438 371.273 231.752 370.807 228.778C370.34 225.803 370.375 222.454 370.911 218.729C371.463 214.895 372.086 210.568 372.78 205.748C373.332 201.913 373.955 197.978 374.648 193.94C375.341 189.903 376.081 185.928 376.868 182.016C377.67 177.994 378.504 174.144 379.369 170.467C380.234 166.79 381.051 163.441 381.821 160.421C382.167 158.794 382.779 157.652 383.656 156.995C384.643 156.354 385.684 156.113 386.78 156.271C387.985 156.444 389.072 157.048 390.041 158.082C391.12 159.132 391.525 160.588 391.257 162.45C390.471 165.58 389.583 169.421 388.592 173.975C387.726 178.435 386.821 183.169 385.877 188.177C385.042 193.2 384.207 198.223 383.372 203.247C382.537 208.27 381.827 212.809 381.244 216.862C380.929 219.053 380.645 221.025 380.392 222.777C380.265 224.436 380.381 225.963 380.74 227.356C381.223 228.656 382.005 229.83 383.084 230.88C384.162 231.93 385.813 232.895 388.034 233.773ZM445.781 242.758C447.643 243.026 448.949 243.661 449.7 244.663C450.466 245.556 450.754 246.66 450.565 247.975C450.36 249.399 449.819 250.439 448.941 251.096C448.19 251.658 447.242 252.025 446.099 252.196C445.066 252.383 443.892 252.382 442.578 252.192C441.373 252.019 440.277 251.861 439.291 251.719C434.69 251.057 430.168 249.847 425.725 248.089C421.407 246.237 417.606 243.901 414.322 241.08C411.038 238.259 408.49 234.985 406.679 231.258C404.867 227.531 404.277 223.476 404.907 219.094C405.586 214.384 407.429 210.512 410.437 207.479C413.571 204.352 417.221 201.914 421.386 200.165C425.551 198.417 429.904 197.31 434.444 196.845C438.983 196.381 443.115 196.417 446.84 196.953C448.702 197.221 450.533 197.708 452.332 198.414C454.241 199.136 455.883 200.156 457.259 201.472C458.635 202.788 459.682 204.448 460.4 206.453C461.118 208.457 461.272 210.883 460.862 213.731C460.373 217.127 458.859 219.873 456.322 221.967C453.784 224.062 450.863 225.71 447.559 226.912C444.255 228.113 440.85 228.853 437.343 229.131C433.837 229.409 430.926 229.437 428.61 229.216C427.404 229.042 426.536 228.47 426.005 227.499C425.599 226.434 425.483 225.299 425.657 224.094C425.799 223.108 426.215 222.162 426.904 221.255C427.61 220.238 428.62 219.824 429.934 220.014C432.016 220.313 434.238 220.41 436.602 220.302C439.075 220.211 441.36 219.869 443.458 219.277C445.682 218.591 447.553 217.63 449.073 216.395C450.592 215.16 451.494 213.557 451.778 211.585C452.204 208.627 450.171 206.825 445.68 206.178C442.722 205.753 439.537 205.741 436.124 206.145C432.727 206.438 429.541 207.21 426.566 208.459C423.591 209.708 420.99 211.458 418.765 213.709C416.666 215.867 415.379 218.589 414.906 221.876C414.543 224.395 414.987 226.751 416.237 228.944C417.596 231.152 419.425 233.205 421.724 235.101C424.148 236.904 426.948 238.425 430.124 239.665C433.41 240.921 436.86 241.809 440.475 242.329C441.352 242.455 442.228 242.582 443.104 242.708C443.997 242.724 444.889 242.741 445.781 242.758Z" fill="white" fill-opacity="0.72"/>
</svg>
