<svg width="300" height="270" viewBox="0 0 362 324" fill="none" xmlns="http://www.w3.org/2000/svg">
<rect width="361" height="324" fill="white"/>
<path d="M88.4692 47.5133V104.899H92.0558V47.5133H88.4692Z" fill="#EC008C"/>
<path d="M96.8384 47.5133V104.899H100.425V47.5133H96.8384Z" fill="#EC008C"/>
<path d="M180.525 100.117L100.425 100.117L100.425 103.703L180.525 103.703L180.525 100.117Z" fill="#EC008C"/>
<path d="M0 277.056L159.006 118.05H202.045L361.051 277.056H0Z" fill="#FFF8C6"/>
<path d="M180.525 140.569L169.516 129.559H191.535L180.525 140.569Z" fill="#FFBB33"/>
<path d="M180.525 107.29L100.425 107.29L100.425 110.877L180.525 110.877L180.525 107.29Z" fill="#EC008C"/>
<path d="M94.447 118.05L80.1006 103.703L87.2738 96.5302L94.447 103.703L101.62 96.5302L108.793 103.703L94.447 118.05Z" fill="#0000B2"/>
<path d="M180.526 96.5301L170.581 86.5851L175.553 81.6125L180.526 86.5851L185.498 81.6125L190.471 86.5851L180.526 96.5301Z" fill="#0000B2"/>
<path d="M190.47 86.5851L180.525 96.5301V86.5851L185.498 81.6125L190.47 86.5851Z" fill="#6699FF"/>
<path d="M180.525 96.5301L147.496 129.559H169.516H180.525H191.535H213.555L180.525 96.5301Z" fill="#623CEA"/>
<path d="M152.952 124.06L147.528 129.559H213.522L208.098 124.06H152.952Z" fill="#6699FF"/>
<path d="M210.799 227.136L184.316 253.562V227.136L197.558 213.895L210.799 227.136Z" fill="#AB97F4"/>
<path d="M184.316 227.136V253.562L157.89 227.136L171.131 213.895L184.316 227.136Z" fill="#623CEA"/>
<path d="M306.376 133.981V46H302.789V133.981H306.376Z" fill="#EC008C"/>
<path d="M298.007 133.981V46H294.421V133.981H298.007Z" fill="#EC008C"/>
<path d="M250.667 184.688L298.008 137.348L295.472 134.812L248.131 182.152L250.667 184.688Z" fill="#EC008C"/>
<path d="M244.75 178.771L292.09 131.43L289.554 128.894L242.213 176.235L244.75 178.771Z" fill="#EC008C"/>
<path d="M300.398 140.02L314.745 125.673L307.571 118.5L300.398 125.673L293.225 118.5L286.052 125.673L300.398 140.02Z" fill="#0000B2"/>
<path d="M210.042 175.713L214.973 180.665L219.915 180.674L228.58 172.044L221.183 164.616L217.469 168.315L219.935 170.791L214.983 175.723L212.517 173.247L210.042 175.713Z" fill="#582E91"/>
<path d="M221.183 164.616L228.581 172.043L239.722 160.947L242.188 163.423L244.663 160.957L239.732 156.005L234.79 155.995L234.783 159.701L226.135 159.684L221.183 164.616Z" fill="#623CEA"/>
<path d="M232.326 168.344L229.879 170.781L238.631 179.568L241.078 177.131L232.326 168.344Z" fill="#AB97F4"/>
<rect width="3.4539" height="12.402" transform="matrix(-0.708517 0.705694 0.705694 0.708517 229.862 170.765)" fill="#AB97F4" fill-opacity="0.56"/>
<rect width="5.11809" height="33.7432" transform="matrix(-0.709413 0.704793 0.706565 0.707648 242.236 175.962)" fill="#623CEA"/>
<rect width="4.9989" height="33.7432" transform="matrix(-0.709219 0.704988 0.706515 0.707698 238.606 179.57)" fill="#AB97F4"/>
<rect width="5.12046" height="2.22716" transform="matrix(-0.707107 0.707107 0.707107 0.707107 266.059 199.821)" fill="#EC008C"/>
<rect width="5.00125" height="2.22716" transform="matrix(-0.707107 0.707107 0.707107 0.707107 262.44 203.44)" fill="#D762A3"/>
<path d="M238.605 179.82L242.238 176.217L244.764 178.742L241.126 182.344L238.605 179.82Z" fill="#D762A3"/>
<path d="M235.028 183.328L238.603 179.814L241.129 182.34L237.549 185.851L235.028 183.328Z" fill="#EC008C"/>
<path d="M244.528 185.741L248.162 182.137L250.687 184.662L247.049 188.264L244.528 185.741Z" fill="#D762A3"/>
<path d="M240.952 189.248L244.527 185.735L247.052 188.26L243.473 191.772L240.952 189.248Z" fill="#EC008C"/>
<path d="M65.2849 135.635L74.4633 138.357L119.074 183.031L112.292 183.045L65.2849 135.635Z" fill="#AB97F4"/>
<path d="M65.2831 135.627L67.5908 145.171L112.279 189.799L112.279 183.029L65.2831 135.627Z" fill="#623CEA"/>
<path d="M123.004 184.743L117.146 184.733L115.573 186.299L128.966 199.74L128.982 190.743L123.004 184.743Z" fill="#D762A3"/>
<path d="M113.99 193.717L114.001 187.859L115.573 186.292L131.48 202.336L122.483 202.32L113.99 193.717Z" fill="#EC008C"/>
<path d="M112.276 189.805L119.07 183.031H112.276L112.276 189.805Z" fill="#623CEA"/>
<path d="M115.687 186.412L112.274 183.026V189.81L115.687 186.412Z" fill="#AB97F4"/>
<path d="M58.6377 211.978V276.537H62.2243V211.978H58.6377Z" fill="#EC008C"/>
<path d="M67.0068 211.978V276.537H70.5934V211.978H67.0068Z" fill="#EC008C"/>
<path d="M106.9 170.85L68.8724 208.878L71.0228 211.028L109.05 173.001L106.9 170.85Z" fill="#EC008C"/>
<path d="M111.92 175.865L73.8901 213.895L76.0406 216.045L114.07 178.016L111.92 175.865Z" fill="#EC008C"/>
<path d="M64.6154 227.459L50.269 213.113L57.4422 205.94L64.6154 213.113L71.7886 205.94L78.9618 213.113L64.6154 227.459Z" fill="#0000B2"/>
<path d="M100.102 177.641L103.532 174.211L105.681 176.374L102.255 179.794L100.102 177.641Z" fill="#D762A3"/>
<rect x="105.117" y="182.665" width="4.8204" height="3.04455" transform="rotate(-45 105.117 182.665)" fill="#D762A3"/>
<rect x="80.1006" y="262.009" width="208.488" height="14.7705" fill="#EC008C"/>
<rect x="184.345" y="262.009" width="104.244" height="14.7848" fill="#FF42B3"/>
<rect x="95.8589" y="253.419" width="176.874" height="8.59053" fill="#F683C7"/>
<rect x="184.296" y="253.419" width="88.4371" height="8.59053" fill="#D762A3"/>
</svg>
