<svg width="46" height="59" viewBox="0 0 46 59" fill="none" xmlns="http://www.w3.org/2000/svg">
<path d="M20.5 22L17.532 20.1451L20.5 22ZM24.5 5L22.6521 7.97242L22.6521 7.97242L24.5 5ZM14.5 9L12.0251 6.52513L12.0251 6.52513L14.5 9ZM4.29308 31L0.852519 30.3577L0.823604 30.5126L0.808723 30.6695L4.29308 31ZM7.00001 47L10.2171 45.6214L7.00001 47ZM15.5003 54.5L14.6514 57.8955L15.5003 54.5ZM45.6305 29.0652C46.495 27.3363 45.7942 25.2339 44.0652 24.3695C42.3363 23.505 40.2339 24.2058 39.3695 25.9348L45.6305 29.0652ZM5.00022 33C5.96174 36.3653 5.96274 36.365 5.96377 36.3648C5.96417 36.3646 5.96524 36.3643 5.96604 36.3641C5.96763 36.3636 5.96939 36.3631 5.9713 36.3626C5.97514 36.3615 5.97962 36.3602 5.98474 36.3587C5.99498 36.3557 6.00777 36.352 6.02306 36.3475C6.05363 36.3384 6.0942 36.3263 6.14425 36.3109C6.24434 36.2803 6.38253 36.2369 6.55482 36.1802C6.89916 36.0669 7.38129 35.9001 7.96896 35.6754C9.14093 35.2273 10.7511 34.542 12.5346 33.5816C16.0448 31.6915 20.5132 28.583 23.468 23.8549L17.532 20.1451C15.4871 23.417 12.2056 25.8085 9.21586 27.4184C7.74938 28.208 6.42203 28.7727 5.469 29.1371C4.99417 29.3186 4.61691 29.4487 4.3675 29.5307C4.24292 29.5717 4.15064 29.6006 4.09448 29.6178C4.06641 29.6264 4.0474 29.632 4.03793 29.6348C4.0332 29.6362 4.03086 29.6369 4.03097 29.6369C4.03102 29.6369 4.03169 29.6367 4.03297 29.6363C4.03362 29.6361 4.03442 29.6359 4.03537 29.6356C4.03585 29.6355 4.03668 29.6352 4.03692 29.6352C4.03779 29.6349 4.0387 29.6347 5.00022 33ZM23.468 23.8549C25.1435 21.1741 27.8702 17.3218 29.2595 13.8779C29.9743 12.106 30.547 9.97767 30.2421 7.80491C29.907 5.4171 28.5748 3.412 26.3479 2.02757L22.6521 7.97242C23.2402 8.338 23.283 8.58492 23.31 8.77773C23.3673 9.1856 23.2893 9.96651 22.7678 11.2591C21.6846 13.9442 19.5963 16.8419 17.532 20.1451L23.468 23.8549ZM26.3479 2.02757C23.191 0.0649955 19.9441 0.897194 17.6664 2.09159C15.4249 3.26698 13.4395 5.11073 12.0251 6.52513L16.9749 11.4749C18.3219 10.1278 19.6782 8.94068 20.9172 8.29096C22.12 7.66025 22.4924 7.87316 22.6521 7.97242L26.3479 2.02757ZM12.0251 6.52513C7.71552 10.8347 4.95204 16.9318 3.28447 21.6451C2.4329 24.052 1.82991 26.2073 1.43871 27.7644C1.24271 28.5445 1.09881 29.1788 1.0027 29.6244C0.95462 29.8474 0.918427 30.0235 0.893588 30.1474C0.881167 30.2093 0.871579 30.2583 0.864757 30.2935C0.861347 30.3112 0.858627 30.3254 0.85659 30.3361C0.855572 30.3415 0.854724 30.346 0.854046 30.3496C0.853707 30.3514 0.85341 30.3529 0.853156 30.3543C0.853029 30.355 0.852869 30.3558 0.852806 30.3562C0.852657 30.357 0.852519 30.3577 4.29308 31C7.73364 31.6423 7.73352 31.6429 7.73341 31.6435C7.73339 31.6436 7.7333 31.6441 7.73325 31.6444C7.73316 31.6448 7.73311 31.6451 7.73311 31.6451C7.73309 31.6452 7.73324 31.6444 7.73355 31.6428C7.73417 31.6395 7.73545 31.6328 7.73739 31.6228C7.74127 31.6027 7.7478 31.5693 7.75703 31.5233C7.77551 31.4311 7.8048 31.2883 7.84538 31.1002C7.9266 30.7236 8.05278 30.1664 8.22773 29.47C8.57846 28.074 9.12095 26.1355 9.88361 23.9799C11.4445 19.5682 13.7845 14.6653 16.9749 11.4749L12.0251 6.52513ZM4.29308 31C0.808723 30.6695 0.808635 30.6704 0.808544 30.6713C0.80851 30.6717 0.808417 30.6727 0.808349 30.6734C0.808214 30.6749 0.808067 30.6764 0.80791 30.6781C0.807597 30.6815 0.807241 30.6854 0.806846 30.6897C0.806056 30.6984 0.805108 30.7091 0.804021 30.7217C0.801848 30.7468 0.799119 30.7797 0.795991 30.8199C0.789737 30.9004 0.78188 31.0108 0.773673 31.1489C0.757268 31.4252 0.739422 31.8136 0.730239 32.2986C0.711897 33.2673 0.727953 34.6291 0.861031 36.258C1.12568 39.4975 1.86111 43.8938 3.78295 48.3786L10.2171 45.6214C8.67989 42.0342 8.06184 38.4306 7.83779 35.688C7.72651 34.3259 7.7144 33.2012 7.72898 32.4311C7.73626 32.0468 7.75015 31.7527 7.76136 31.5639C7.76697 31.4695 7.77189 31.4016 7.77496 31.3621C7.7765 31.3423 7.77757 31.3296 7.77803 31.3243C7.77826 31.3216 7.77834 31.3208 7.77825 31.3218C7.7782 31.3223 7.77811 31.3233 7.77798 31.3248C7.77791 31.3255 7.77783 31.3263 7.77774 31.3273C7.7777 31.3278 7.77762 31.3286 7.7776 31.3288C7.77752 31.3297 7.77744 31.3305 4.29308 31ZM3.78295 48.3786C5.64816 52.7312 9.55189 56.6206 14.6514 57.8955L16.3492 51.1045C13.675 50.436 11.3515 48.2688 10.2171 45.6214L3.78295 48.3786ZM14.6514 57.8955C19.2305 59.0403 23.5482 56.9231 26.9216 54.3164C30.3896 51.6365 33.6143 47.8703 36.3178 44.2012C39.0462 40.4984 41.3681 36.7223 43.0013 33.8881C43.8205 32.4666 44.4723 31.2718 44.9215 30.4279C45.1462 30.0058 45.3206 29.6709 45.4402 29.4388C45.5 29.3227 45.5461 29.2322 45.578 29.1693C45.5939 29.1379 45.6063 29.1133 45.6151 29.0959C45.6195 29.0872 45.623 29.0802 45.6255 29.0751C45.6268 29.0726 45.6279 29.0704 45.6287 29.0688C45.6291 29.068 45.6296 29.0671 45.6298 29.0667C45.6302 29.0659 45.6305 29.0652 42.5 27.5C39.3695 25.9348 39.3697 25.9343 39.3699 25.934C39.3699 25.9341 39.37 25.9338 39.3699 25.9339C39.3698 25.9341 39.3695 25.9347 39.369 25.9358C39.3679 25.9379 39.3659 25.9419 39.3631 25.9476C39.3573 25.959 39.348 25.9774 39.3352 26.0026C39.3096 26.0531 39.2701 26.1307 39.2171 26.2336C39.1111 26.4394 38.9514 26.7462 38.7426 27.1385C38.3246 27.9235 37.7108 29.049 36.9363 30.3931C35.382 33.0902 33.204 36.6266 30.6824 40.0488C28.136 43.5048 25.3608 46.676 22.6414 48.7774C19.8273 50.9519 17.77 51.4597 16.3492 51.1045L14.6514 57.8955Z" fill="#623CEA"/>
</svg>
