<svg width="300" height="270" viewBox="0 0 361 324" fill="none" xmlns="http://www.w3.org/2000/svg">
<rect width="361" height="324" fill="white"/>
<path d="M80.4613 292H67.8459L143.538 216.308H156.154L80.4613 292Z" fill="#D762A3"/>
<path d="M269.692 292H282.307L206.615 216.308H194L269.692 292Z" fill="#D762A3"/>
<path d="M181.384 292V52.3077L175.077 46L168.769 52.3077V292H181.384Z" fill="#EC008C"/>
<path d="M30 64.9231H332.769V90.1539L320.154 102.769L332.769 115.385V216.308H80.4615L67.8462 203.692L55.2308 216.308H30V64.9231Z" fill="white"/>
<rect x="175.077" y="79.641" width="151.385" height="132.462" fill="#623CEA" fill-opacity="0.15"/>
<path d="M36.3077 77.5385H30V216.308H332.769V77.5385H326.462V211.051H36.3077V77.5385Z" fill="#CCDDFF"/>
<path d="M88.8716 161.641L63.6409 186.872L65.7434 188.974L90.9742 163.744L88.8716 161.641Z" fill="#000080"/>
<path d="M93.0769 157.436L118.308 182.667L116.205 184.769L90.9743 159.538L93.0769 157.436Z" fill="#000080"/>
<path d="M137.231 155.333L116.205 176.359L118.308 178.461L139.333 157.436L137.231 155.333Z" fill="#000080"/>
<path d="M61.5386 184.769L67.8463 191.077L74.154 184.769L67.8463 178.462L61.5386 184.769Z" fill="#D762A3"/>
<path d="M86.769 159.538L93.0767 165.846L99.3844 159.538L93.0767 153.231L86.769 159.538Z" fill="#EC008C"/>
<path d="M107.795 180.564L114.103 186.872L120.41 180.564L114.103 174.256L107.795 180.564Z" fill="#EC008C"/>
<path d="M130.923 157.436L137.231 163.744L143.538 157.436L137.231 151.128L130.923 157.436Z" fill="#D762A3"/>
<path d="M67.8463 134.308L61.5386 128H74.154H86.7693L80.4617 134.308L74.154 128L67.8463 134.308Z" fill="#6699FF"/>
<path d="M105.692 134.308L99.3845 128H112H124.615L118.308 134.308L112 128L105.692 134.308Z" fill="#6699FF"/>
<path d="M284.41 180.564L278.103 174.256H290.718H303.333L297.026 180.564L290.718 174.256L284.41 180.564Z" fill="#6699FF"/>
<rect x="30" y="64.9231" width="302.769" height="14.7179" fill="#6699FF"/>
<path d="M30 90.1539V64.9231H55.2308L30 90.1539Z" fill="#0000B2"/>
<path d="M332.769 90.1539V64.9231H307.538L332.769 90.1539Z" fill="#0000B2"/>
<path d="M30 191.077V216.308H55.2308L30 191.077Z" fill="#0000B2"/>
<path d="M332.769 191.077V216.308H307.538L332.769 191.077Z" fill="#0000B2"/>
<path d="M69.9488 106.974L61.5386 115.385H133.026L141.436 106.974H69.9488Z" fill="#000080"/>
<path d="M286.513 106.974L278.103 115.385H301.231L309.641 106.974H286.513Z" fill="#000080"/>
<path d="M274.27 139.337L237.596 175.933V139.337L255.933 121L274.27 139.337Z" fill="#623CEA" fill-opacity="0.45"/>
<path d="M237.596 139.337V175.933L201 139.337L219.337 121L237.596 139.337Z" fill="#623CEA"/>
</svg>
