<svg width="41" height="74" viewBox="0 0 41 74" fill="none" xmlns="http://www.w3.org/2000/svg">
<path d="M6.96805 73.26C5.49471 73.26 4.19138 72.8067 3.05805 71.9C2.03805 70.88 1.41471 69.69 1.18805 68.33C0.848047 66.97 0.62138 65.2133 0.508047 63.06C0.394713 61.36 0.338047 58.7533 0.338047 55.24L0.508047 43C0.508047 41.1867 0.564713 39.8267 0.678047 38.92C0.904713 28.6067 1.47138 17.8967 2.37805 6.79C2.49138 5.09 2.66138 3.84333 2.88805 3.05C3.11471 2.25667 3.73805 1.57667 4.75805 1.01C5.43805 0.556665 6.11805 0.329998 6.79805 0.329998C8.15805 0.329998 9.23471 0.726665 10.028 1.52C10.8214 2.2 11.218 3.16333 11.218 4.41C11.218 5.43 11.048 6.62 10.708 7.98C10.368 9.34 10.1414 10.4733 10.028 11.38L9.51805 17.5C9.51805 19.3133 9.46138 20.7867 9.34805 21.92L8.32805 47.25C8.32805 49.29 8.27138 50.82 8.15805 51.84L7.98805 56.26C7.98805 57.0533 8.04471 57.6767 8.15805 58.13C8.15805 58.2433 8.15805 58.3567 8.15805 58.47C8.27138 58.47 8.32805 58.47 8.32805 58.47C8.44138 58.3567 8.55471 58.1867 8.66805 57.96C8.89471 57.7333 9.00805 57.5067 9.00805 57.28C9.34805 56.1467 9.63138 55.0133 9.85805 53.88C10.0847 52.6333 10.368 51.4433 10.708 50.31C12.748 40.79 14.9014 33.14 17.168 27.36C17.3947 26.7933 18.0747 24.98 19.208 21.92C20.3414 18.86 21.758 16.2533 23.458 14.1C25.2714 11.9467 27.2547 10.53 29.408 9.85C29.8614 9.73667 30.598 9.68 31.618 9.68C33.2047 9.68 34.6214 10.0767 35.868 10.87C37.6814 11.89 38.9847 13.3067 39.778 15.12C40.3447 16.2533 40.628 17.33 40.628 18.35C40.628 19.4833 40.288 20.56 39.608 21.58C38.928 22.6 37.908 23.11 36.548 23.11C34.6214 23.11 33.148 22.43 32.128 21.07C31.788 20.6167 31.5047 19.8233 31.278 18.69C31.0514 17.5567 30.8247 16.7633 30.598 16.31C30.0314 16.65 29.4647 17.2167 28.898 18.01C28.4447 18.8033 28.1047 19.37 27.878 19.71C27.6514 20.2767 27.3114 20.9 26.858 21.58C26.518 22.26 26.1214 23.0533 25.668 23.96C23.968 27.5867 22.4947 31.44 21.248 35.52C20.0014 39.6 18.7547 44.4167 17.508 49.97L16.318 55.24C16.0914 56.1467 15.6947 57.79 15.128 60.17C14.6747 62.55 14.1647 64.6467 13.598 66.46C12.4647 70.3133 10.708 72.5233 8.32805 73.09C7.98805 73.2033 7.53471 73.26 6.96805 73.26Z" fill="#623CEA"/>
</svg>
