<svg width="43" height="77" viewBox="0 0 43 77" fill="none" xmlns="http://www.w3.org/2000/svg">
<path d="M12.5372 5.3239C12.7161 2.84507 10.8516 0.690558 8.37279 0.511672C5.89396 0.332786 3.73945 2.19726 3.56056 4.6761L12.5372 5.3239ZM16.5489 49.5L12.2648 48.123L12.2443 48.1867L12.2257 48.2511L16.5489 49.5ZM33.2074 21.6841C33.8613 24.0818 36.3352 25.4954 38.7329 24.8414C41.1306 24.1875 42.5442 21.7136 41.8903 19.3159L33.2074 21.6841ZM8.04889 5C3.56056 4.6761 3.56055 4.67633 3.56052 4.67674C3.56049 4.67712 3.56045 4.67772 3.56039 4.67848C3.56028 4.68001 3.56012 4.68228 3.5599 4.68527C3.55947 4.69126 3.55883 4.70017 3.55798 4.71195C3.55628 4.73552 3.55376 4.77058 3.55044 4.81679C3.5438 4.90922 3.53397 5.04624 3.52117 5.22509C3.49559 5.58279 3.45816 6.10779 3.41071 6.77788C3.31583 8.11803 3.18087 10.0387 3.02051 12.362C2.69983 17.008 2.27731 23.2674 1.87032 29.7166C1.46356 36.1621 1.07127 42.8136 0.811835 48.2382C0.560964 53.4836 0.408717 58.0051 0.564437 59.8737L9.53335 59.1263C9.43906 57.9949 9.53681 54.2039 9.80156 48.6681C10.0577 43.3114 10.4467 36.7129 10.8525 30.2834C11.258 23.8576 11.6792 17.617 11.9991 12.9817C12.1591 10.6644 12.2937 8.74915 12.3882 7.41352C12.4355 6.74572 12.4728 6.22288 12.4982 5.86719C12.511 5.68935 12.5207 5.55331 12.5273 5.46183C12.5306 5.41609 12.5331 5.3815 12.5347 5.3584C12.5356 5.34684 12.5362 5.33816 12.5366 5.3324C12.5368 5.32952 12.537 5.32737 12.5371 5.32595C12.5371 5.32524 12.5372 5.32473 12.5372 5.32437C12.5372 5.32404 12.5372 5.3239 8.04889 5ZM0.564437 59.8737C0.808152 62.7982 1.07545 65.9533 1.57379 68.445C1.82021 69.6771 2.17808 71.0489 2.77256 72.2517C3.31064 73.3404 4.52482 75.2575 6.95747 75.8656L9.14031 67.1344C10.573 67.4925 10.9747 68.5346 10.8409 68.2639C10.7635 68.1073 10.5901 67.6354 10.399 66.68C10.0224 64.7967 9.78965 62.2018 9.53335 59.1263L0.564437 59.8737ZM6.95747 75.8656C9.29702 76.4505 10.9637 75.1349 11.4316 74.7268C12.0505 74.1871 12.4892 73.569 12.7603 73.1523C13.3364 72.2668 13.8726 71.1551 14.3446 70.0746C15.3159 67.8509 16.3659 64.935 17.3131 62.1249C18.2697 59.2872 19.1586 56.4451 19.8065 54.32C20.131 53.2554 20.3963 52.3663 20.581 51.7419C20.6733 51.4296 20.7455 51.1833 20.7949 51.0142C20.8196 50.9296 20.8386 50.8643 20.8516 50.8196C20.8581 50.7973 20.8631 50.7801 20.8665 50.7683C20.8682 50.7623 20.8696 50.7578 20.8705 50.7545C20.871 50.7529 20.8713 50.7516 20.8716 50.7507C20.8717 50.7502 20.8719 50.7498 20.8719 50.7496C20.872 50.7492 20.8721 50.7489 16.5489 49.5C12.2257 48.2511 12.2257 48.251 12.2257 48.251C12.2257 48.2511 12.2257 48.2511 12.2256 48.2514C12.2255 48.2518 12.2252 48.2526 12.2249 48.2537C12.2243 48.2559 12.2233 48.2595 12.2218 48.2644C12.219 48.2741 12.2146 48.2892 12.2087 48.3095C12.197 48.3499 12.1793 48.4109 12.1559 48.491C12.1091 48.6511 12.0397 48.8878 11.9504 49.1898C11.7718 49.7939 11.5137 50.6587 11.1976 51.6957C10.5641 53.7737 9.7031 56.5253 8.78463 59.2501C7.85685 62.0025 6.90691 64.6179 6.09696 66.4722C5.67828 67.4308 5.37855 67.9949 5.21638 68.2442C5.11834 68.3949 5.21236 68.2089 5.51625 67.9439C5.66923 67.8104 7.05076 66.612 9.14031 67.1344L6.95747 75.8656ZM16.5489 49.5C20.833 50.877 20.833 50.877 20.8331 50.8769C20.8331 50.8768 20.8332 50.8766 20.8332 50.8764C20.8334 50.876 20.8336 50.8754 20.8338 50.8745C20.8344 50.8729 20.8352 50.8703 20.8363 50.867C20.8384 50.8603 20.8416 50.8502 20.8459 50.837C20.8544 50.8104 20.8671 50.7709 20.8838 50.7192C20.917 50.6157 20.9661 50.4633 21.029 50.2677C21.1548 49.8765 21.3363 49.3125 21.5588 48.6216C22.0038 47.2397 22.6127 45.3504 23.2684 43.3209C24.5828 39.2525 26.0759 34.6492 26.8179 32.423L18.2798 29.577C17.5218 31.8508 16.0148 36.4975 14.7043 40.5541C14.0475 42.5871 13.4377 44.4791 12.9921 45.8628C12.7693 46.5547 12.5875 47.1196 12.4614 47.5116C12.3983 47.7076 12.3492 47.8604 12.3158 47.9642C12.2991 48.0161 12.2864 48.0557 12.2778 48.0824C12.2735 48.0958 12.2702 48.1059 12.2681 48.1127C12.267 48.1161 12.2661 48.1186 12.2656 48.1204C12.2653 48.1212 12.2651 48.1219 12.265 48.1223C12.2649 48.1225 12.2648 48.1227 12.2648 48.1228C12.2648 48.1229 12.2648 48.123 16.5489 49.5ZM26.8179 32.423C27.4936 30.3959 29.0163 26.6446 30.7494 23.4673C31.6238 21.8642 32.4494 20.5984 33.1374 19.7957C33.2994 19.6067 33.4346 19.4662 33.5408 19.3661C33.593 19.3169 33.6342 19.2813 33.6642 19.2568C33.6943 19.2322 33.7093 19.222 33.7089 19.2222C33.7087 19.2224 33.6881 19.2365 33.6471 19.2584C33.606 19.2803 33.5388 19.313 33.446 19.3476C33.2601 19.4168 32.9517 19.5 32.5488 19.5V10.5C30.8813 10.5 29.5389 11.1732 28.6427 11.7836C27.7242 12.4092 26.944 13.1921 26.3041 13.9386C25.0233 15.4328 23.8489 17.3233 22.8483 19.1577C20.8314 22.8554 19.104 27.1041 18.2798 29.577L26.8179 32.423ZM32.5488 19.5C32.1554 19.5 31.933 19.3226 31.9641 19.3479C32.0403 19.41 32.2365 19.6151 32.4871 20.0393C32.7236 20.4394 32.9158 20.8762 33.0516 21.2347C33.1167 21.4068 33.1627 21.5442 33.1894 21.6281C33.2026 21.6697 33.2107 21.6969 33.2138 21.7073C33.2153 21.7125 33.2155 21.7134 33.2145 21.7096C33.2139 21.7077 33.2131 21.7047 33.2119 21.7005C33.2113 21.6983 33.2107 21.6959 33.2099 21.6932C33.2095 21.6918 33.2091 21.6904 33.2087 21.6889C33.2085 21.6881 33.2082 21.6869 33.2081 21.6865C33.2077 21.6853 33.2074 21.6841 37.5488 20.5C41.8903 19.3159 41.8899 19.3146 41.8895 19.3133C41.8894 19.3129 41.8891 19.3116 41.8888 19.3106C41.8883 19.3088 41.8878 19.3068 41.8872 19.3048C41.8861 19.3007 41.8849 19.2963 41.8835 19.2916C41.8809 19.282 41.8778 19.2711 41.8744 19.2588C41.8674 19.2343 41.8588 19.2043 41.8485 19.1691C41.8278 19.099 41.8003 19.008 41.7657 18.8992C41.6967 18.6824 41.5981 18.3901 41.468 18.0466C41.2131 17.3738 40.8115 16.4356 40.2355 15.4607C39.275 13.8353 36.8613 10.5 32.5488 10.5V19.5Z" fill="#623CEA"/>
</svg>
