<svg width="99" height="196" viewBox="0 0 99 196" fill="none" xmlns="http://www.w3.org/2000/svg">
<path d="M96.82 25.6566C98.2872 24.8869 98.8527 23.0736 98.083 21.6063C97.3133 20.1391 95.4999 19.5737 94.0327 20.3434L96.82 25.6566ZM6.10789 30.9215C7.72139 30.545 8.72414 28.9317 8.34759 27.3182C7.97104 25.7047 6.35779 24.702 4.74429 25.0785L6.10789 30.9215ZM5.45083 36.7577C6.84243 37.9754 8.98016 38.6864 11.0974 39.1668C13.3599 39.6802 16.1594 40.0451 19.3303 40.2662C25.6834 40.7092 33.7908 40.5927 42.6142 39.8005C60.2039 38.2211 81.0751 33.9163 96.82 25.6566L94.0327 20.3434C79.2776 28.0837 59.2915 32.2789 42.0776 33.8245C33.4992 34.5948 25.7181 34.697 19.7477 34.2807C16.7567 34.0721 14.2856 33.7378 12.4251 33.3156C10.4194 32.8605 9.58173 32.3996 9.402 32.2423L5.45083 36.7577ZM5.42609 28C4.74429 25.0785 4.74207 25.079 4.73983 25.0795C4.73906 25.0797 4.7368 25.0803 4.73525 25.0806C4.73215 25.0814 4.72898 25.0821 4.72572 25.0829C4.7192 25.0845 4.71236 25.0861 4.7052 25.0879C4.69089 25.0914 4.67528 25.0954 4.65846 25.0997C4.62485 25.1085 4.58616 25.119 4.54299 25.1316C4.45703 25.1565 4.35107 25.19 4.23036 25.2338C3.99403 25.3197 3.67419 25.4548 3.32643 25.6607C2.6591 26.0558 1.63995 26.8673 1.19946 28.3133C0.745467 29.8036 1.10568 31.3007 1.84027 32.6219C2.55854 33.9137 3.75209 35.2712 5.45083 36.7577L9.402 32.2423C7.95808 30.9788 7.33026 30.1488 7.08422 29.7062C6.8545 29.2931 7.10747 29.5089 6.93906 30.0617C6.78415 30.5702 6.44341 30.788 6.3831 30.8237C6.33886 30.8499 6.30468 30.8639 6.27813 30.8736C6.26231 30.8793 6.24227 30.886 6.21602 30.8936C6.20269 30.8975 6.1873 30.9017 6.16952 30.9063C6.16062 30.9087 6.15106 30.9111 6.14082 30.9136C6.1357 30.9149 6.1304 30.9162 6.12491 30.9175C6.12217 30.9181 6.11938 30.9188 6.11654 30.9195C6.11513 30.9198 6.11296 30.9203 6.11225 30.9205C6.11008 30.921 6.10789 30.9215 5.42609 28Z" fill="#623CEA"/>
<path d="M56.8885 4.54861C57.1915 2.36035 55.6631 0.340791 53.4749 0.0378007C51.2866 -0.26519 49.2671 1.26312 48.9641 3.45139L56.8885 4.54861ZM48.4263 36.5L44.4641 35.9514L44.4409 36.1185L44.4319 36.287L48.4263 36.5ZM45.4264 112L41.4278 111.895L41.4264 111.947V112H45.4264ZM46.4263 74L42.4319 73.787L42.4291 73.8408L42.4277 73.8948L46.4263 74ZM44.6263 186.1C43.3008 184.333 40.7936 183.975 39.0263 185.3C37.259 186.625 36.9008 189.133 38.2263 190.9L44.6263 186.1ZM48.9641 3.45139L44.4641 35.9514L52.3885 37.0486L56.8885 4.54861L48.9641 3.45139ZM45.4264 112C41.4264 112 41.4264 112 41.4264 112.001C41.4264 112.001 41.4264 112.002 41.4264 112.003C41.4264 112.005 41.4264 112.006 41.4264 112.008C41.4264 112.009 41.4264 112.011 41.4264 112.014C41.4264 112.016 41.4264 112.019 41.4264 112.021C41.4264 112.024 41.4264 112.027 41.4264 112.031C41.4264 112.034 41.4264 112.038 41.4264 112.042C41.4264 112.046 41.4264 112.05 41.4264 112.055C41.4264 112.059 41.4264 112.064 41.4264 112.069C41.4264 112.074 41.4264 112.08 41.4264 112.085C41.4264 112.091 41.4264 112.097 41.4264 112.103C41.4264 112.109 41.4264 112.116 41.4264 112.123C41.4264 112.129 41.4264 112.136 41.4264 112.144C41.4264 112.151 41.4264 112.158 41.4264 112.166C41.4264 112.174 41.4264 112.182 41.4264 112.191C41.4264 112.199 41.4264 112.208 41.4264 112.217C41.4264 112.226 41.4264 112.235 41.4264 112.244C41.4264 112.254 41.4264 112.264 41.4264 112.274C41.4264 112.284 41.4264 112.294 41.4264 112.304C41.4264 112.315 41.4264 112.326 41.4264 112.337C41.4264 112.348 41.4264 112.359 41.4264 112.371C41.4264 112.382 41.4264 112.394 41.4264 112.406C41.4264 112.419 41.4264 112.431 41.4264 112.444C41.4264 112.456 41.4264 112.469 41.4264 112.482C41.4264 112.496 41.4264 112.509 41.4264 112.523C41.4264 112.536 41.4264 112.55 41.4264 112.565C41.4264 112.579 41.4264 112.593 41.4264 112.608C41.4264 112.623 41.4264 112.638 41.4264 112.653C41.4264 112.668 41.4264 112.684 41.4264 112.7C41.4264 112.716 41.4264 112.732 41.4264 112.748C41.4264 112.764 41.4264 112.781 41.4264 112.797C41.4264 112.814 41.4264 112.831 41.4264 112.849C41.4264 112.866 41.4264 112.883 41.4264 112.901C41.4264 112.919 41.4264 112.937 41.4264 112.955C41.4264 112.974 41.4264 112.992 41.4264 113.011C41.4264 113.03 41.4264 113.049 41.4264 113.068C41.4264 113.088 41.4264 113.107 41.4264 113.127C41.4264 113.147 41.4264 113.167 41.4264 113.187C41.4264 113.207 41.4264 113.228 41.4264 113.249C41.4264 113.27 41.4264 113.291 41.4264 113.312C41.4264 113.333 41.4264 113.355 41.4264 113.376C41.4264 113.398 41.4264 113.42 41.4264 113.442C41.4264 113.465 41.4264 113.487 41.4264 113.51C41.4264 113.533 41.4264 113.556 41.4264 113.579C41.4264 113.602 41.4264 113.625 41.4264 113.649C41.4264 113.673 41.4264 113.697 41.4264 113.721C41.4264 113.745 41.4264 113.77 41.4264 113.794C41.4264 113.819 41.4264 113.844 41.4264 113.869C41.4264 113.894 41.4264 113.919 41.4264 113.945C41.4264 113.97 41.4264 113.996 41.4264 114.022C41.4264 114.048 41.4264 114.075 41.4264 114.101C41.4264 114.128 41.4264 114.154 41.4264 114.181C41.4264 114.208 41.4264 114.235 41.4264 114.263C41.4264 114.29 41.4264 114.318 41.4264 114.346C41.4264 114.374 41.4264 114.402 41.4264 114.43C41.4264 114.459 41.4264 114.487 41.4264 114.516C41.4264 114.545 41.4264 114.574 41.4264 114.603C41.4264 114.632 41.4264 114.662 41.4264 114.691C41.4264 114.721 41.4264 114.751 41.4264 114.781C41.4264 114.811 41.4264 114.842 41.4264 114.872C41.4264 114.903 41.4264 114.934 41.4264 114.965C41.4264 114.996 41.4264 115.027 41.4264 115.059C41.4264 115.09 41.4264 115.122 41.4264 115.154C41.4264 115.186 41.4264 115.218 41.4264 115.25C41.4264 115.282 41.4264 115.315 41.4264 115.348C41.4264 115.38 41.4264 115.413 41.4264 115.447C41.4264 115.48 41.4264 115.513 41.4264 115.547C41.4264 115.581 41.4264 115.614 41.4264 115.649C41.4264 115.683 41.4264 115.717 41.4264 115.751C41.4264 115.786 41.4264 115.821 41.4264 115.856C41.4264 115.89 41.4264 115.926 41.4264 115.961C41.4264 115.996 41.4264 116.032 41.4264 116.068C41.4264 116.46 41.4264 116.108 41.4264 116.507C41.4264 116.544 41.4264 116.582 41.4264 116.619C41.4264 116.657 41.4264 116.695 41.4264 116.733C41.4264 116.772 41.4264 116.81 41.4264 116.849C41.4264 116.887 41.4264 116.926 41.4264 116.965C41.4264 117.83 41.4264 118.024 41.4264 118.987C41.4264 120.432 41.4264 122.062 41.4264 123.844C41.4264 127.406 41.4264 131.57 41.4264 136.047C41.4264 138.285 41.4264 140.602 41.4264 142.96C41.4264 143.746 41.4264 143.945 41.4264 144.736C41.4264 144.81 41.4264 144.885 41.4264 144.959C41.4264 145.033 41.4264 145.108 41.4264 145.182C41.4264 145.257 41.4264 145.331 41.4264 145.405C41.4264 145.48 41.4264 145.554 41.4264 145.629C41.4264 145.703 41.4264 145.778 41.4264 145.853C41.4264 145.927 41.4264 146.002 41.4264 146.076C41.4264 146.151 41.4264 146.226 41.4264 146.3C41.4264 146.375 41.4264 146.45 41.4264 146.525C41.4264 146.599 41.4264 146.674 41.4264 146.749C41.4264 146.824 41.4264 146.898 41.4264 146.973C41.4264 147.048 41.4264 147.123 41.4264 147.198C41.4264 147.273 41.4264 147.347 41.4264 147.422C41.4264 147.622 41.4264 147.672 41.4264 147.872C41.4264 147.947 41.4264 148.022 41.4264 148.097C41.4264 148.172 41.4264 148.247 41.4264 148.322C41.4264 148.397 41.4264 148.472 41.4264 148.547C41.4264 148.622 41.4264 148.697 41.4264 148.772C41.4264 148.847 41.4264 148.923 41.4264 148.998C41.4264 149.073 41.4264 149.148 41.4264 149.223C41.4264 149.298 41.4264 149.373 41.4264 149.448C41.4264 149.524 41.4264 149.599 41.4264 149.674C41.4264 149.749 41.4264 149.824 41.4264 149.899C41.4264 149.975 41.4264 150.05 41.4264 150.125C41.4264 169.375 41.4264 189 41.4264 190.5L49.4264 190.5C49.4264 188.877 49.4264 169.498 49.4264 150.125C49.4264 150.05 49.4264 149.975 49.4264 149.899C49.4264 149.824 49.4264 149.749 49.4264 149.674C49.4264 149.599 49.4264 149.524 49.4264 149.448C49.4264 149.373 49.4264 149.298 49.4264 149.223C49.4264 149.148 49.4264 149.073 49.4264 148.998C49.4264 148.923 49.4264 148.847 49.4264 148.772C49.4264 148.697 49.4264 148.622 49.4264 148.547C49.4264 148.472 49.4264 148.397 49.4264 148.322C49.4264 148.247 49.4264 148.172 49.4264 148.097C49.4264 148.022 49.4264 147.947 49.4264 147.872C49.4264 147.472 49.4264 147.822 49.4264 147.422C49.4264 147.347 49.4264 147.273 49.4264 147.198C49.4264 147.123 49.4264 147.048 49.4264 146.973C49.4264 146.898 49.4264 146.824 49.4264 146.749C49.4264 146.674 49.4264 146.599 49.4264 146.525C49.4264 146.45 49.4264 146.375 49.4264 146.3C49.4264 146.226 49.4264 146.151 49.4264 146.076C49.4264 146.002 49.4264 145.927 49.4264 145.853C49.4264 145.778 49.4264 145.703 49.4264 145.629C49.4264 145.554 49.4264 145.48 49.4264 145.405C49.4264 145.331 49.4264 145.257 49.4264 145.182C49.4264 145.108 49.4264 145.033 49.4264 144.959C49.4264 144.885 49.4264 144.81 49.4264 144.736C49.4264 144.662 49.4264 144.588 49.4264 144.513C49.4264 144.439 49.4264 144.365 49.4264 144.291C49.4264 144.217 49.4264 144.142 49.4264 144.068C49.4264 143.994 49.4264 143.92 49.4264 143.846C49.4264 143.772 49.4264 143.698 49.4264 143.624C49.4264 143.55 49.4264 143.477 49.4264 143.403C49.4264 143.009 49.4264 143.353 49.4264 142.96C49.4264 141.781 49.4264 140.612 49.4264 139.458C49.4264 138.305 49.4264 137.166 49.4264 136.047C49.4264 131.57 49.4264 127.406 49.4264 123.844C49.4264 122.953 49.4264 122.1 49.4264 121.289C49.4264 120.478 49.4264 119.709 49.4264 118.987C49.4264 118.942 49.4264 118.897 49.4264 118.852C49.4264 118.808 49.4264 118.763 49.4264 118.719C49.4264 118.674 49.4264 118.63 49.4264 118.586C49.4264 118.542 49.4264 118.498 49.4264 118.454C49.4264 118.411 49.4264 118.367 49.4264 118.324C49.4264 118.281 49.4264 118.238 49.4264 118.195C49.4264 118.152 49.4264 118.109 49.4264 118.067C49.4264 118.024 49.4264 117.982 49.4264 117.94C49.4264 117.897 49.4264 117.855 49.4264 117.814C49.4264 117.772 49.4264 117.73 49.4264 117.689C49.4264 117.648 49.4264 117.606 49.4264 117.565C49.4264 117.524 49.4264 117.484 49.4264 117.443C49.4264 117.402 49.4264 117.362 49.4264 117.322C49.4264 117.282 49.4264 117.242 49.4264 117.202C49.4264 117.162 49.4264 117.122 49.4264 117.083C49.4264 117.043 49.4264 117.004 49.4264 116.965C49.4264 116.926 49.4264 116.887 49.4264 116.849C49.4264 116.81 49.4264 116.772 49.4264 116.733C49.4264 116.695 49.4264 116.657 49.4264 116.619C49.4264 116.582 49.4264 116.544 49.4264 116.507C49.4264 116.108 49.4264 116.46 49.4264 116.068C49.4264 116.032 49.4264 115.996 49.4264 115.961C49.4264 115.926 49.4264 115.89 49.4264 115.856C49.4264 115.821 49.4264 115.786 49.4264 115.751C49.4264 115.717 49.4264 115.683 49.4264 115.649C49.4264 115.614 49.4264 115.581 49.4264 115.547C49.4264 115.513 49.4264 115.48 49.4264 115.447C49.4264 115.413 49.4264 115.38 49.4264 115.348C49.4264 115.315 49.4264 115.282 49.4264 115.25C49.4264 115.218 49.4264 115.186 49.4264 115.154C49.4264 115.122 49.4264 115.09 49.4264 115.059C49.4264 115.027 49.4264 114.996 49.4264 114.965C49.4264 114.934 49.4264 114.903 49.4264 114.872C49.4264 114.842 49.4264 114.811 49.4264 114.781C49.4264 114.751 49.4264 114.721 49.4264 114.691C49.4264 114.662 49.4264 114.632 49.4264 114.603C49.4264 114.574 49.4264 114.545 49.4264 114.516C49.4264 114.487 49.4264 114.459 49.4264 114.43C49.4264 114.402 49.4264 114.374 49.4264 114.346C49.4264 114.318 49.4264 114.29 49.4264 114.263C49.4264 114.235 49.4264 114.208 49.4264 114.181C49.4264 114.154 49.4264 114.128 49.4264 114.101C49.4264 114.075 49.4264 114.048 49.4264 114.022C49.4264 113.996 49.4264 113.97 49.4264 113.945C49.4264 113.919 49.4264 113.894 49.4264 113.869C49.4264 113.384 49.4264 113.766 49.4264 113.312C49.4264 113.291 49.4264 113.27 49.4264 113.249C49.4264 113.228 49.4264 113.207 49.4264 113.187C49.4264 113.167 49.4264 113.147 49.4264 113.127C49.4264 113.107 49.4264 113.088 49.4264 113.068C49.4264 113.049 49.4264 113.03 49.4264 113.011C49.4264 112.992 49.4264 112.974 49.4264 112.955C49.4264 112.937 49.4264 112.919 49.4264 112.901C49.4264 112.883 49.4264 112.866 49.4264 112.849C49.4264 112.831 49.4264 112.814 49.4264 112.797C49.4264 112.781 49.4264 112.764 49.4264 112.748C49.4264 112.732 49.4264 112.716 49.4264 112.7C49.4264 112.684 49.4264 112.668 49.4264 112.653C49.4264 112.638 49.4264 112.623 49.4264 112.608C49.4264 112.593 49.4264 112.579 49.4264 112.565C49.4264 112.55 49.4264 112.536 49.4264 112.523C49.4264 112.509 49.4264 112.496 49.4264 112.482C49.4264 112.469 49.4264 112.456 49.4264 112.444C49.4264 112.431 49.4264 112.419 49.4264 112.406C49.4264 112.394 49.4264 112.382 49.4264 112.371C49.4264 112.359 49.4264 112.348 49.4264 112.337C49.4264 112.326 49.4264 112.315 49.4264 112.304C49.4264 112.294 49.4264 112.284 49.4264 112.274C49.4264 112.264 49.4264 112.254 49.4264 112.244C49.4264 112.235 49.4264 112.226 49.4264 112.217C49.4264 112.208 49.4264 112.199 49.4264 112.191C49.4264 112.182 49.4264 112.174 49.4264 112.166C49.4264 112.158 49.4264 112.151 49.4264 112.144C49.4264 112.136 49.4264 112.129 49.4264 112.123C49.4264 112.116 49.4264 112.109 49.4264 112.103C49.4264 112.097 49.4264 112.091 49.4264 112.085C49.4264 112.08 49.4264 112.074 49.4264 112.069C49.4264 112.064 49.4264 112.059 49.4264 112.055C49.4264 112.05 49.4264 112.046 49.4264 112.042C49.4264 112.038 49.4264 112.034 49.4264 112.031C49.4264 112.027 49.4264 112.024 49.4264 112.021C49.4264 112.019 49.4264 112.016 49.4264 112.014C49.4264 112.011 49.4264 112.009 49.4264 112.008C49.4264 112.006 49.4264 112.005 49.4264 112.003C49.4264 112.002 49.4264 112.001 49.4264 112.001C49.4264 112 49.4264 112 45.4264 112ZM44.4319 36.287L42.4319 73.787L50.4206 74.213L52.4206 36.713L44.4319 36.287ZM42.4277 73.8948L41.4278 111.895L49.425 112.105L50.4249 74.1052L42.4277 73.8948ZM38.2263 190.9C38.9249 191.832 40.2345 193.534 41.55 194.546C41.9082 194.821 42.4598 195.2 43.1588 195.461C43.8396 195.715 45.1386 196.026 46.5745 195.417C48.0795 194.778 48.7866 193.539 49.0863 192.694C49.3732 191.884 49.4264 191.09 49.4264 190.5L41.4264 190.5C41.4264 190.66 41.4014 190.429 41.5458 190.021C41.7029 189.578 42.203 188.581 43.4502 188.052C44.6282 187.552 45.6186 187.84 45.9537 187.965C46.3069 188.097 46.4757 188.241 46.4276 188.204C46.3461 188.142 46.1029 187.917 45.7114 187.464C45.351 187.046 44.9752 186.565 44.6263 186.1L38.2263 190.9Z" fill="#623CEA"/>
</svg>
